<?xml version="1.0" encoding="UTF-8"?>
<svg version="1.1" xmlns="http://www.w3.org/2000/svg" width="300" height="218">
<path d="M0 0 C2.6015625 -0.29296875 2.6015625 -0.29296875 5.625 -0.1875 C7.12933594 -0.14689453 7.12933594 -0.14689453 8.6640625 -0.10546875 C9.43492188 -0.07066406 10.20578125 -0.03585937 11 0 C9.73369703 4.11529566 8.19950365 7.72492009 6.0859375 11.47265625 C5.49780273 12.52251709 4.90966797 13.57237793 4.30371094 14.65405273 C3.34899902 16.34123413 3.34899902 16.34123413 2.375 18.0625 C1.70544255 19.25494621 1.03650952 20.44774321 0.36816406 21.64086914 C-0.67918009 23.51049561 -1.72686612 25.37992006 -2.77636719 27.24833679 C-7.32205134 35.3425602 -11.79847865 43.47505516 -16.26879883 51.61108398 C-19.26190981 57.0556202 -22.2677553 62.49064342 -25.34765625 67.88671875 C-25.85329102 68.78076416 -26.35892578 69.67480957 -26.87988281 70.59594727 C-27.78986257 72.20236859 -28.70878918 73.80378008 -29.63964844 75.39819336 C-35.52517905 85.8458322 -37.95711373 97.32111436 -34.875 109.0625 C-31.33214947 119.41221615 -25.25345424 127.95074157 -15.5859375 133.34765625 C-5.40339144 137.8570695 4.61803509 137.95888156 15 134 C18.95292592 132.02109997 22.73536311 130.00126093 26 127 C27.05060726 123.63702675 27.10026948 120.50943195 27 117 C28.98 117 30.96 117 33 117 C33.37125 118.175625 33.7425 119.35125 34.125 120.5625 C43.37800942 148.0620981 57.66872996 168.52125528 83.74609375 182.46875 C93.66044433 187.3007069 104.95259109 190.51617187 116 191 C116.78890625 191.0515625 117.5778125 191.103125 118.390625 191.15625 C142.26925381 192.01416481 164.50148045 182.35105095 181.78930664 166.31787109 C187.22131728 161.04179892 192.60446912 154.79106177 196 148 C196.99 148 197.98 148 199 148 C198.67 148.99 198.34 149.98 198 151 C197.34 151 196.68 151 196 151 C195.77441406 151.69480469 195.54882812 152.38960937 195.31640625 153.10546875 C193.70320356 156.65259989 191.46458186 159.39206786 188.9375 162.3125 C188.44507813 162.88500488 187.95265625 163.45750977 187.4453125 164.04736328 C180.26726785 172.26177291 172.44104481 178.52393571 163 184 C162.10925781 184.5259375 161.21851563 185.051875 160.30078125 185.59375 C139.8273899 196.78701277 113.89156903 198.88129692 91.54711914 192.40600586 C79.03135475 188.29488749 67.84730463 181.70964254 58 173 C57.38125 172.51144531 56.7625 172.02289063 56.125 171.51953125 C45.60472803 163.13618952 36.57880664 149.65196571 32 137 C31.15179688 137.54269531 30.30359375 138.08539063 29.4296875 138.64453125 C15.98976598 146.96125688 2.77307885 149.98944399 -12.9375 146.3125 C-26.1764838 142.10009606 -35.48569282 132.97845721 -41.8125 120.875 C-45.40948329 113.58282227 -46.36337202 106.82999189 -46.375 98.8125 C-46.39949219 97.94302734 -46.42398438 97.07355469 -46.44921875 96.17773438 C-46.50488797 83.55009963 -40.84680805 73.18707086 -34.875 62.375 C-34.19584473 61.12875582 -33.51746886 59.8820866 -32.83984375 58.63500977 C-30.90587879 55.08295848 -28.95462643 51.54072323 -27 48 C-26.52723633 47.14035645 -26.05447266 46.28071289 -25.56738281 45.39501953 C-23.2109402 41.11301086 -20.83073858 36.84477703 -18.44140625 32.58105469 C-16.66167319 29.39417496 -14.89310328 26.20115223 -13.125 23.0078125 C-12.09250996 21.1442629 -11.05993034 19.28076295 -10.02734375 17.41726685 C-9.34729247 16.18950196 -8.66759968 14.96153844 -7.98828125 13.73336792 C-7.03505418 12.01038292 -6.08006062 10.28837558 -5.125 8.56640625 C-4.57070313 7.56552979 -4.01640625 6.56465332 -3.4453125 5.53344727 C-2.36863802 3.64617512 -1.20524802 1.80787204 0 0 Z " fill="#D6B469" transform="translate(52,11)"/>
<path d="M0 0 C2.84756093 -0.00364604 5.19812473 0.26518796 7.92578125 1.05859375 C6.46925305 4.90973051 4.71155065 8.48233066 2.765625 12.109375 C2.45944244 12.68131088 2.15325989 13.25324677 1.83779907 13.84251404 C0.84914022 15.68691896 -0.14358278 17.52909626 -1.13671875 19.37109375 C-1.81587972 20.63506797 -2.49499742 21.89906544 -3.17407227 23.16308594 C-8.03163794 32.19023495 -12.97775498 41.16395237 -18.07421875 50.05859375 C-17.49849121 50.04046631 -16.92276367 50.02233887 -16.32958984 50.00366211 C-4.24582466 49.78461727 5.18900771 54.11211804 14.92578125 61.05859375 C15.03019531 60.35734375 15.13460937 59.65609375 15.2421875 58.93359375 C19.60000595 40.60585445 36.95733213 23.78089799 52.17724609 14.12695312 C72.50733801 1.70521587 97.45269304 -2.92587807 120.92700195 2.23632812 C123.98032694 3.04017916 126.94998745 4.00546067 129.92578125 5.05859375 C130.96089844 5.40921875 131.99601563 5.75984375 133.0625 6.12109375 C145.5537137 10.82366832 156.52670389 18.67550122 165.92578125 28.05859375 C166.68375 28.80496094 167.44171875 29.55132812 168.22265625 30.3203125 C181.11194792 43.76517709 189.65271062 61.5605017 191.92578125 80.05859375 C189.03135237 77.16416487 188.41175201 73.57156166 187.23828125 69.74609375 C179.64746884 46.21037373 164.83546944 27.80946458 142.92578125 16.05859375 C121.48211162 5.4450603 98.59853581 3.32667454 75.80078125 10.68359375 C61.99386462 15.44825282 51.16465866 22.71761927 40.92578125 33.05859375 C40.12398438 33.83847656 39.3221875 34.61835937 38.49609375 35.421875 C26.86899133 47.39095102 19.41515675 63.88058006 15.92578125 80.05859375 C13.61578125 80.05859375 11.30578125 80.05859375 8.92578125 80.05859375 C9.23515625 78.86234375 9.54453125 77.66609375 9.86328125 76.43359375 C10.18646842 73.78252221 10.26983636 72.56381754 8.75 70.33203125 C0.8126106 63.2157511 -8.49558067 60.74702419 -18.8984375 60.8359375 C-25.63914922 61.30853352 -31.4348716 63.35777218 -37.07421875 67.05859375 C-37.73421875 67.05859375 -38.39421875 67.05859375 -39.07421875 67.05859375 C-37.67867891 63.38614241 -36.03470446 59.97114064 -34.16796875 56.515625 C-33.59401367 55.45077881 -33.02005859 54.38593262 -32.42871094 53.28881836 C-31.81672852 52.16096924 -31.20474609 51.03312012 -30.57421875 49.87109375 C-29.93774854 48.69478449 -29.30135597 47.51843321 -28.66503906 46.34204102 C-19.70181612 29.78965395 -19.70181612 29.78965395 -15.4296875 22.28125 C-13.73243618 19.28971223 -12.15994295 16.25747607 -10.625 13.1796875 C-4.66229679 1.60544146 -4.66229679 1.60544146 0 0 Z " fill="#D6B469" transform="translate(69.07421875,9.94140625)"/>
<path d="M0 0 C3 1 3 1 4.39453125 3.22265625 C4.86246094 4.15980469 5.33039063 5.09695312 5.8125 6.0625 C9.00245309 12.15673874 12.18724963 18.12483308 18 22 C18 22.66 18 23.32 18 24 C18.56847656 24.26167969 19.13695312 24.52335937 19.72265625 24.79296875 C22.17645615 26.09352479 24.22785908 27.63198052 26.4375 29.3125 C39.58830676 38.60909388 56.16144726 41.969794 72.02734375 39.71142578 C89.72059432 36.54888459 104.45353549 27.39803602 115 12.8125 C117.69426849 8.69534155 119.93398353 4.46259557 122 0 C122.99 0 123.98 0 125 0 C124.34 1.98 123.68 3.96 123 6 C123.75925781 5.72285156 124.51851562 5.44570312 125.30078125 5.16015625 C126.79158203 4.61681641 126.79158203 4.61681641 128.3125 4.0625 C129.29863281 3.70285156 130.28476563 3.34320313 131.30078125 2.97265625 C133.1920563 2.29114035 135.09284329 1.6357189 137 1 C137.99 1.99 137.99 1.99 139 3 C134.32176666 11.38100527 130.18678794 13.83733774 121.01171875 16.44921875 C120.34785156 16.63097656 119.68398437 16.81273437 119 17 C119 17.66 119 18.32 119 19 C119.69867188 18.90460938 120.39734375 18.80921875 121.1171875 18.7109375 C122.02726563 18.60007813 122.93734375 18.48921875 123.875 18.375 C124.77992188 18.25898438 125.68484375 18.14296875 126.6171875 18.0234375 C127.40351563 18.01570313 128.18984375 18.00796875 129 18 C129.99 18.99 129.99 18.99 131 20 C127.48384642 24.79475488 124.87028837 27.20906456 119 29 C116.98215458 29.10745922 115.01804805 29.06331075 113 28.97265625 C109.77980735 29.01668232 107.04160603 29.98613132 104 31 C103.67 30.67 103.34 30.34 103 30 C102.67 30.66 102.34 31.32 102 32 C103.9490625 32.185625 103.9490625 32.185625 105.9375 32.375 C110.71849952 32.89863328 115.33114101 33.86313835 120 35 C113.62246238 41.73184527 113.62246238 41.73184527 108.74609375 42.23046875 C107.98425781 42.21628906 107.22242188 42.20210937 106.4375 42.1875 C105.29087891 42.17783203 105.29087891 42.17783203 104.12109375 42.16796875 C102 42 102 42 99 41 C96.66700175 40.96045766 94.33291811 40.95598268 92 41 C94.72555055 43.40489755 96.76667334 44.92372013 100.25 46.0625 C101.1575 46.371875 102.065 46.68125 103 47 C103.33 47.99 103.66 48.98 104 50 C99.06354358 52.46822821 94.59292963 54.1621672 89 53 C86.63897082 51.82560207 84.43167156 50.49640782 82.1875 49.11328125 C78.93424353 47.45760608 76.58153439 47.6189857 73 48 C74.39176632 48.96423026 75.7886223 49.92111602 77.1875 50.875 C77.96480469 51.40867188 78.74210937 51.94234375 79.54296875 52.4921875 C81.9676609 53.98015439 84.3333499 55.02428078 87 56 C87 56.33 87 56.66 87 57 C80.42881001 57.46751549 76.23187291 57.4844625 71 53 C70.38125 52.2575 69.7625 51.515 69.125 50.75 C66.57258495 48.64801113 64.62614267 48.26389379 61.3359375 48.3984375 C57.28805194 49.44086957 54.16617248 52.01931347 50.765625 54.375 C46.75207387 56.73324473 43.60503087 56.92450769 39 57 C40 55 40 55 42.8125 53.625 C45.88166237 52.06032899 47.72195431 50.54089712 50 48 C45.75555626 48.35370364 42.74094218 48.99475266 39 51.0625 C34.46268332 53.45331687 30.77872233 53.85763035 25.78515625 52.31640625 C23.83530539 51.60020444 21.91444398 50.80608168 20 50 C23.54352618 45.68614204 27.95192247 44.0278602 33 42 C32.67 41.67 32.34 41.34 32 41 C28.34253144 41.25499521 24.69750548 41.55025125 21.05273438 41.94726562 C14.85247705 42.44308175 11.34909558 41.167792 6 38 C6 35 6 35 7 34 C9.51859228 33.4380482 12.02873303 32.92023227 14.5625 32.4375 C15.27341797 32.29892578 15.98433594 32.16035156 16.71679688 32.01757812 C18.47719932 31.67494946 20.23851797 31.33703447 22 31 C15.45685226 29.63631989 15.45685226 29.63631989 8.828125 28.85546875 C3.50782656 28.47162171 0.1859196 27.58793109 -4 24 C-5.875 21.25 -5.875 21.25 -7 19 C-2.9472484 18.01751476 0.83861737 17.91840426 5 18 C1.68580091 16.26004548 -1.49424575 14.84011183 -5.0625 13.75 C-9.05802445 12.30546424 -10.91684473 10.16906966 -13.28515625 6.71875 C-14 5 -14 5 -13 2 C-9.7997785 2 -7.38516529 2.63242392 -4.3125 3.5 C-3.31863281 3.7784375 -2.32476562 4.056875 -1.30078125 4.34375 C-0.16189453 4.66859375 -0.16189453 4.66859375 1 5 C0.67 3.35 0.34 1.7 0 0 Z M116 16 C115.67 16.99 115.34 17.98 115 19 C115.66 19 116.32 19 117 19 C116.67 18.01 116.34 17.02 116 16 Z M8 17 C7.67 17.66 7.34 18.32 7 19 C7.99 18.67 8.98 18.34 10 18 C9.34 17.67 8.68 17.34 8 17 Z M34 37 C34.66 38.32 35.32 39.64 36 41 C36.99 40.34 37.98 39.68 39 39 C36.525 38.01 36.525 38.01 34 37 Z M85 40 C86.32 40.33 87.64 40.66 89 41 C89.33 40.01 89.66 39.02 90 38 C87.67642489 37.81509993 87.67642489 37.81509993 85 40 Z M50 42 C50.66 43.65 51.32 45.3 52 47 C55.27036728 47.14510162 58.53991007 47.23399373 61.8125 47.3125 C62.74126953 47.35439453 63.67003906 47.39628906 64.62695312 47.43945312 C65.9659668 47.46362305 65.9659668 47.46362305 67.33203125 47.48828125 C68.56530151 47.52755737 68.56530151 47.52755737 69.82348633 47.56762695 C72.7474947 47.07621618 72.7474947 47.07621618 75 42 C66.75 42 58.5 42 50 42 Z " fill="#D6B469" transform="translate(113,128)"/>
<path d="M0 0 C0.556875 0.0721875 1.11375 0.144375 1.6875 0.21875 C5.59539054 0.69403398 9.37351213 1.04877084 13.3125 0.9375 C16.67786331 0.99454006 18.25820994 1.17213996 21 3 C21 3.66 21 4.32 21 5 C19.02 5 17.04 5 15 5 C21.37358711 5.96205088 27.55929529 6.10655578 34 6 C34.495 6.99 34.495 6.99 35 8 C34.01 8 33.02 8 32 8 C32.05181808 11.27213285 32.14687405 14.54161377 32.25 17.8125 C32.26417969 18.74126953 32.27835938 19.67003906 32.29296875 20.62695312 C32.32519531 21.51962891 32.35742188 22.41230469 32.390625 23.33203125 C32.41157227 24.15421143 32.43251953 24.9763916 32.45410156 25.82348633 C32.83978921 28.15545319 32.83978921 28.15545319 34.83886719 29.8269043 C37.07051737 31.32857879 37.07051737 31.32857879 40.1875 30.4375 C43.11205465 29.34589218 43.11205465 29.34589218 43.66967773 27.15332031 C44.19986294 23.69712406 44.10253929 20.23649836 44.0625 16.75 C44.05798828 16.00492188 44.05347656 15.25984375 44.04882812 14.4921875 C44.03709246 12.6614236 44.0191585 10.83070127 44 9 C43.01 8.67 42.02 8.34 41 8 C41 7.34 41 6.68 41 6 C45.06243957 5.94180527 49.12477146 5.90633785 53.1875 5.875 C54.33798828 5.85824219 55.48847656 5.84148437 56.67382812 5.82421875 C57.78564453 5.81777344 58.89746094 5.81132813 60.04296875 5.8046875 C61.06414795 5.79421387 62.08532715 5.78374023 63.13745117 5.77294922 C66.16142626 6.01280396 68.3019116 6.62915094 71 8 C72.53214888 11.06429776 72.22938548 13.6165642 72 17 C70.484375 19.73046875 70.484375 19.73046875 69 22 C70.21424393 23.49144105 71.44706045 24.96777403 72.6875 26.4375 C73.71423828 27.67306641 73.71423828 27.67306641 74.76171875 28.93359375 C77.12656408 31.47690111 77.12656408 31.47690111 82 32 C82 24.41 82 16.82 82 9 C81.01 8.67 80.02 8.34 79 8 C79 7.34 79 6.68 79 6 C82.96 6 86.92 6 91 6 C91 6.66 91 7.32 91 8 C90.34 8.33 89.68 8.66 89 9 C89 15.93 89 22.86 89 30 C91.31 30 93.62 30 96 30 C96.33 29.34 96.66 28.68 97 28 C97.66 28 98.32 28 99 28 C98.67 29.98 98.34 31.96 98 34 C93.83454875 34.26326588 89.6712488 34.42182084 85.5 34.5625 C84.32695312 34.63791016 83.15390625 34.71332031 81.9453125 34.79101562 C73.34363349 35.0084738 73.34363349 35.0084738 69.37109375 32.02685547 C64 26.1169946 64 26.1169946 64 23 C63.01 23 62.02 23 61 23 C61 25.97 61 28.94 61 32 C61.99 32 62.98 32 64 32 C64 32.66 64 33.32 64 34 C60.04 34 56.08 34 52 34 C52.495 33.01 52.495 33.01 53 32 C53.66 32 54.32 32 55 32 C55 24.08 55 16.16 55 8 C53.02 8 51.04 8 49 8 C49.05220703 9.84464844 49.05220703 9.84464844 49.10546875 11.7265625 C49.13362045 13.35936127 49.16091913 14.9921749 49.1875 16.625 C49.21263672 17.43324219 49.23777344 18.24148437 49.26367188 19.07421875 C49.32556835 24.14972999 48.85667141 27.61706917 46 32 C42.42874629 34.63592536 39.70458647 35.22234122 35.375 34.9375 C32.27097385 34.46196737 31.07693926 34.05770445 28.5 32.125 C26.33404966 29.05657035 25.86522139 26.42803095 25.68359375 22.76953125 C25.64169922 21.96708984 25.59980469 21.16464844 25.55664062 20.33789062 C25.51732422 19.50451172 25.47800781 18.67113281 25.4375 17.8125 C25.39431641 16.96751953 25.35113281 16.12253906 25.30664062 15.25195312 C25.20068482 13.16815567 25.0998498 11.08409897 25 9 C24.01 8.67 23.02 8.34 22 8 C22 10.31 22 12.62 22 15 C21.34 15 20.68 15 20 15 C19.71125 14.360625 19.4225 13.72125 19.125 13.0625 C18.17176549 10.84793921 18.17176549 10.84793921 16 10 C11.79907375 9.50529633 8.21178886 9.34977183 4.4375 11.375 C2.16408147 15.52645992 2.17909988 19.38697719 3 24 C4.30411891 26.99887253 5.32556357 27.8270204 8 30 C10.77254753 30.76360366 13.09068496 30.90137915 16 31 C16.0928125 29.1128125 16.0928125 29.1128125 16.1875 27.1875 C16.22230469 26.47980469 16.25710937 25.77210937 16.29296875 25.04296875 C16.14285448 22.54328284 16.14285448 22.54328284 13 20 C16.96 20 20.92 20 25 20 C24.67 20.66 24.34 21.32 24 22 C23.34 22 22.68 22 22 22 C22 25.63 22 29.26 22 33 C16.13016724 35.16928602 11.13040462 35.39603274 5 34 C0.62133758 31.77086277 -2.19374563 29.61598339 -4 25 C-4.68031111 19.98585513 -4.55368338 16.17125329 -2.375 11.5625 C0.21105666 8.77228097 2.49789695 7.43267852 6 6 C5.01 5.38125 4.02 4.7625 3 4.125 C2.01 3.42375 1.02 2.7225 0 2 C0 1.34 0 0.68 0 0 Z M61 9 C61 12.63 61 16.26 61 20 C65.63019987 19.5547002 65.63019987 19.5547002 67 18 C67.41400106 13.8085289 67.41400106 13.8085289 65.6875 10.125 C63.92199528 8.7226499 63.92199528 8.7226499 61 9 Z " fill="#D6B469" transform="translate(89,90)"/>
<path d="M0 0 C3 1 3 1 4.16333008 3.30078125 C4.52837646 4.29464844 4.89342285 5.28851563 5.26953125 6.3125 C5.68396484 7.38757813 6.09839844 8.46265625 6.52539062 9.5703125 C7.38202551 11.852939 8.22843127 14.13943106 9.06445312 16.4296875 C9.6919043 18.04230469 9.6919043 18.04230469 10.33203125 19.6875 C10.70046143 20.68136719 11.0688916 21.67523438 11.44848633 22.69921875 C11.96048584 23.45847656 12.47248535 24.21773437 13 25 C14.98 25.33 16.96 25.66 19 26 C19 18.08 19 10.16 19 2 C18.01 2 17.02 2 16 2 C16 1.34 16 0.68 16 0 C18.22855574 -0.0814222 20.45797655 -0.13938079 22.6875 -0.1875 C23.92886719 -0.22230469 25.17023438 -0.25710937 26.44921875 -0.29296875 C30.49607131 0.04092998 33.11242948 1.11242948 36 4 C36.39490742 9.13379651 35.79113021 11.73985389 33 16 C34.26342488 17.48549956 35.5360103 18.96321189 36.8125 20.4375 C37.52019531 21.26121094 38.22789062 22.08492187 38.95703125 22.93359375 C40.91109686 25.22164759 40.91109686 25.22164759 44 26 C44 26.66 44 27.32 44 28 C36.7702407 28.61269147 36.7702407 28.61269147 33.25 25.8125 C31.7763723 23.97046538 30.31737733 22.11660595 28.875 20.25 C27.12568403 17.74947545 27.12568403 17.74947545 24 17 C24.495 21.455 24.495 21.455 25 26 C25.99 26 26.98 26 28 26 C28 26.66 28 27.32 28 28 C20.74 28 13.48 28 6 28 C5.0234375 24.74479167 4.046875 21.48958333 3.0703125 18.234375 C2.21467611 15.64872928 1.3062454 13.37713126 0 11 C-0.8918258 13.26547696 -1.76355285 15.53549778 -2.625 17.8125 C-2.88023437 18.45509766 -3.13546875 19.09769531 -3.3984375 19.75976562 C-4.21720294 21.86309328 -4.21720294 21.86309328 -5 25 C-4.34 25.99 -3.68 26.98 -3 28 C-6.63 28 -10.26 28 -14 28 C-13.67 27.34 -13.34 26.68 -13 26 C-12.01 26 -11.02 26 -10 26 C-9.4740625 24.2984375 -9.4740625 24.2984375 -8.9375 22.5625 C-6.39343634 14.88090974 -3.12550716 7.45840203 0 0 Z M24 3 C24 6.63 24 10.26 24 14 C25.65 14 27.3 14 29 14 C31.33296251 11.17282787 31.33296251 11.17282787 30.75 7.9375 C30.2406756 4.900541 30.2406756 4.900541 28 3 C26.68 3 25.36 3 24 3 Z " fill="#D6B469" transform="translate(249,96)"/>
<path d="M0 0 C3.96 0 7.92 0 12 0 C12 0.66 12 1.32 12 2 C11.01 2.495 11.01 2.495 10 3 C9.94595551 5.75026417 9.90630694 8.49946203 9.875 11.25 C9.85824219 12.02730469 9.84148437 12.80460937 9.82421875 13.60546875 C9.6771399 19.12505342 9.6771399 19.12505342 12 24 C15.62458922 25.23999105 17.17223377 24.95694156 21 24 C21.33 16.74 21.66 9.48 22 2 C21.01 2 20.02 2 19 2 C19 1.34 19 0.68 19 0 C26.26 0 33.52 0 41 0 C41 0.66 41 1.32 41 2 C40.01 2 39.02 2 38 2 C38.33 9.26 38.66 16.52 39 24 C41.31 24.33 43.62 24.66 46 25 C46.495 23.515 46.495 23.515 47 22 C47.66 22 48.32 22 49 22 C48.67 23.98 48.34 25.96 48 28 C41.73 28 35.46 28 29 28 C29.33 27.34 29.66 26.68 30 26 C30.66 26 31.32 26 32 26 C32 18.08 32 10.16 32 2 C30.35 2 28.7 2 27 2 C26.98018066 2.58491211 26.96036133 3.16982422 26.93994141 3.77246094 C26.84446519 6.43208025 26.73487858 9.09093838 26.625 11.75 C26.57859375 13.13058594 26.57859375 13.13058594 26.53125 14.5390625 C26.49257812 15.42851563 26.45390625 16.31796875 26.4140625 17.234375 C26.3826416 18.05131836 26.3512207 18.86826172 26.31884766 19.70996094 C25.96700247 22.23699603 25.38017118 23.85742111 24 26 C19.44273877 28.64321151 16.19471053 29.33059358 10.9921875 28.8125 C7.65963743 27.45334232 6.1657203 25.89129156 4 23 C3.26086332 19.56367568 3.20980042 16.19362209 3.1875 12.6875 C3.14979492 11.29047852 3.14979492 11.29047852 3.11132812 9.86523438 C3.05264002 7.57639814 3.01622832 5.28946574 3 3 C2.01 2.67 1.02 2.34 0 2 C0 1.34 0 0.68 0 0 Z " fill="#D6B469" transform="translate(186,96)"/>
<path d="M0 0 C1 3 1 3 0 6 C1.65 5.34 3.3 4.68 5 4 C5 4.66 5 5.32 5 6 C3.37485926 7.1053347 1.69701265 8.13353881 0 9.125 C-14.64910281 18.25251791 -23.92497157 33.32942917 -28 50 C-29.32 49.67 -30.64 49.34 -32 49 C-33.44037364 43.86866892 -34.51730927 39.3800164 -34 34 C-32.5 31.5625 -32.5 31.5625 -31 30 C-29.515 33.465 -29.515 33.465 -28 37 C-27.505 36.505 -27.505 36.505 -27 36 C-27.26565219 33.01370298 -27.65099776 30.05084737 -28.0390625 27.078125 C-27.99311861 23.45774652 -27.26753371 21.79558951 -25 19 C-24.01 19 -23.02 19 -22 19 C-21.3503125 17.329375 -21.3503125 17.329375 -20.6875 15.625 C-19 12 -19 12 -16 10 C-15.67 11.98 -15.34 13.96 -15 16 C-14.84144531 15.38511719 -14.68289062 14.77023438 -14.51953125 14.13671875 C-12.59005146 7.45283019 -12.59005146 7.45283019 -9.3125 4.9375 C-8.549375 4.628125 -7.78625 4.31875 -7 4 C-6.67 4.99 -6.34 5.98 -6 7 C-5.7525 6.21625 -5.505 5.4325 -5.25 4.625 C-3.84610901 1.67682892 -2.99324263 1.0975223 0 0 Z M-8 9 C-7 12 -7 12 -7 12 Z M-15 17 C-14 19 -14 19 -14 19 Z " fill="#D6B469" transform="translate(140,40)"/>
<path d="M0 0 C2.3125 0.5625 2.3125 0.5625 5 2 C6.34776978 4.27962623 7.11364216 6.48087772 8 9 C8 7.35 8 5.7 8 4 C10.46800047 5.15173355 12.04783565 6.04783565 14 8 C14.6328125 10.3828125 14.6328125 10.3828125 15.125 13.125 C15.29257813 14.03507812 15.46015625 14.94515625 15.6328125 15.8828125 C15.75398438 16.58148438 15.87515625 17.28015625 16 18 C15.95875 17.05125 15.9175 16.1025 15.875 15.125 C16 12 16 12 18 10 C22.12989477 14.26311718 22.61271765 17.28758534 23 23 C23.33 21.35 23.66 19.7 24 18 C27 19 27 19 28.1796875 20.609375 C29.30534086 23.88985051 29.18904316 26.79166963 29.125 30.25 C29.10695312 31.51328125 29.08890625 32.7765625 29.0703125 34.078125 C29.04710937 35.04234375 29.02390625 36.0065625 29 37 C29.99 34.69 30.98 32.38 32 30 C34.17274623 31.70041009 34.97582688 32.92920728 35.875 35.5625 C36.04738955 40.30321266 35.03993159 44.70157273 33 49 C32.01 49.33 31.02 49.66 30 50 C29.64808594 48.97261719 29.29617187 47.94523437 28.93359375 46.88671875 C25.87427511 38.20165889 22.51887379 30.46455213 17 23 C16.49082031 22.29617187 15.98164063 21.59234375 15.45703125 20.8671875 C10.41688289 14.52033402 3.7247205 10.36854024 -3 6 C-2.67 5.34 -2.34 4.68 -2 4 C-1.01 4.33 -0.02 4.66 1 5 C0.67 3.35 0.34 1.7 0 0 Z M22 25 C23 27 23 27 23 27 Z " fill="#D6B469" transform="translate(209,40)"/>
<path d="M0 0 C0.99 0 1.98 0 3 0 C3.30550781 0.66644531 3.61101562 1.33289063 3.92578125 2.01953125 C9.88387015 14.01962579 18.71408542 22.64106671 31 28 C31.88816406 28.41121094 32.77632812 28.82242188 33.69140625 29.24609375 C45.27408487 33.9017184 59.72005217 33.8967618 71.3046875 29.25 C72.19414062 28.8375 73.08359375 28.425 74 28 C74.93070312 27.5875 75.86140625 27.175 76.8203125 26.75 C88.6498141 20.9505786 96.20101579 11.59796842 102 0 C102.99 0 103.98 0 105 0 C101.22794338 13.03944445 90.92916722 22.8213776 79.40258789 29.28613281 C74.07232422 32.12875191 68.93592787 33.9592281 63 35 C62.14277344 35.15210938 61.28554687 35.30421875 60.40234375 35.4609375 C44.67337512 37.5457787 29.85088124 33.19071191 17.2421875 23.8046875 C9.85221289 17.85665915 1.76843849 9.68106714 0 0 Z " fill="#D6B469" transform="translate(123,128)"/>
<path d="M0 0 C3.96 0 7.92 0 12 0 C12 0.66 12 1.32 12 2 C11.01 2.495 11.01 2.495 10 3 C9.94595551 5.75026417 9.90630694 8.49946203 9.875 11.25 C9.85824219 12.02730469 9.84148437 12.80460937 9.82421875 13.60546875 C9.68167604 19.12248723 9.68167604 19.12248723 12 24 C14.34872531 25.16977494 14.34872531 25.16977494 17 25 C19.33911639 23.6349251 19.33911639 23.6349251 21 21 C21.49105435 17.90223425 21.37700999 14.87639986 21.25 11.75 C21.23195313 10.90953125 21.21390625 10.0690625 21.1953125 9.203125 C21.14830798 7.13492605 21.07656724 5.06731559 21 3 C20.34 2.67 19.68 2.34 19 2 C19 1.34 19 0.68 19 0 C22.3 0 25.6 0 29 0 C29 0.66 29 1.32 29 2 C28.01 2.495 28.01 2.495 27 3 C26.97873047 4.95292969 26.97873047 4.95292969 26.95703125 6.9453125 C26.91011285 8.67190966 26.86186556 10.39847107 26.8125 12.125 C26.80669922 12.9809375 26.80089844 13.836875 26.79492188 14.71875 C26.64674462 18.99942612 26.38670168 22.10959524 23.69140625 25.55078125 C20.52167472 28.43528294 19.16105462 28.95067124 15.0625 29.17578125 C11.50739899 28.87278969 9.11961571 27.7469848 6 26 C2.5569435 20.83541525 2.86719159 15.73943138 2.9375 9.6875 C2.94201172 8.94693359 2.94652344 8.20636719 2.95117188 7.44335938 C2.96287825 5.62887101 2.98081102 3.81442466 3 2 C2.01 2 1.02 2 0 2 C0 1.34 0 0.68 0 0 Z " fill="#D6B469" transform="translate(57,96)"/>
<path d="M0 0 C3 1 3 1 4.60546875 4.16015625 C5.14593438 5.45554044 5.67055956 6.75754948 6.1875 8.0625 C7.115625 10.351875 8.04375 12.64125 9 15 C10.98 10.05 12.96 5.1 15 0 C15.99 0.33 16.98 0.66 18 1 C14.7 9.58 11.4 18.16 8 27 C7.01 27 6.02 27 5 27 C5.14179688 26.44054687 5.28359375 25.88109375 5.4296875 25.3046875 C6.80671505 17.7914319 4.55358668 12.65675961 1.34765625 6.00390625 C0 3 0 3 0 0 Z " fill="#D6B469" transform="translate(251,141)"/>
<path d="M0 0 C1.3921875 0.2784375 1.3921875 0.2784375 2.8125 0.5625 C6.01343771 1.24123881 6.01343771 1.24123881 9 0 C9.28875 0.804375 9.5775 1.60875 9.875 2.4375 C10.73262568 5.1326468 10.73262568 5.1326468 13 6 C13 5.34 13 4.68 13 4 C12.34 4 11.68 4 11 4 C11 2.68 11 1.36 11 0 C12.32 0 13.64 0 15 0 C15 2.31 15 4.62 15 7 C10.98296552 8.06333266 8.05694996 7.70555651 4 7 C3.01 7.33 2.02 7.66 1 8 C0.67 5.36 0.34 2.72 0 0 Z M7 4 C8 7 8 7 8 7 Z " fill="#D6B469" transform="translate(170,183)"/>
<path d="M0 0 C0.66 0.33 1.32 0.66 2 1 C0.83984375 1.80050781 0.83984375 1.80050781 -0.34375 2.6171875 C-13.20757346 11.81927904 -21.17826184 22.76871499 -26 38 C-26.66 38 -27.32 38 -28 38 C-25.47232982 22.58121189 -16.10741559 11.46675771 -3.84765625 2.27734375 C-2 1 -2 1 0 0 Z " fill="#D6B469" transform="translate(148,52)"/>
<path d="M0 0 C10.98489442 3.43277951 19.85442677 13.52120816 25.07006836 23.40429688 C27.52230719 28.27143408 29.34048403 32.55899325 30 38 C29.34 38 28.68 38 28 38 C27.67128906 37.05640625 27.34257812 36.1128125 27.00390625 35.140625 C22.41298596 22.52550266 16.13708275 12.72022774 5.1640625 4.62109375 C3.25757654 3.19294994 1.62998387 1.72988611 0 0 Z " fill="#D6B469" transform="translate(201,52)"/>
<path d="M0 0 C0.99 0 1.98 0 3 0 C3 6.6 3 13.2 3 20 C2.01 20 1.02 20 0 20 C0 13.4 0 6.8 0 0 Z " fill="#D6B469" transform="translate(271,141)"/>
<path d="M0 0 C0.66 0 1.32 0 2 0 C2 9.9 2 19.8 2 30 C1.34 30 0.68 30 0 30 C0 20.1 0 10.2 0 0 Z " fill="#D6B469" transform="translate(279,131)"/>
<path d="M0 0 C0.66 0 1.32 0 2 0 C2.33 2.64 2.66 5.28 3 8 C1.68 7.67 0.36 7.34 -1 7 C-1.04254356 5.00045254 -1.04080783 2.99958364 -1 1 C-0.67 0.67 -0.34 0.34 0 0 Z " fill="#D6B469" transform="translate(166,183)"/>
</svg>
